<svg fill="#051864" xmlns="http://www.w3.org/2000/svg" xmlns:xlink="http://www.w3.org/1999/xlink" viewBox="0 0 250 250" version="1.1" xml:space="preserve" style="" x="0px" y="0px" fill-rule="evenodd" clip-rule="evenodd" stroke-linejoin="round" stroke-miterlimit="1.41421"><g transform="matrix(1,0,0,1,-300,-2085)"><g transform="matrix(1,0,0,1,0,2085)"><rect x="300" y="0" width="250" height="250" style="" fill="none"></rect><g transform="matrix(0.967741,0,0,0.967741,13.6084,-2017.09)"><path d="M349.089,2227.52C349.42,2227.22 349.787,2226.97 350.164,2226.74C350.598,2226.47 351.05,2226.24 351.508,2226.02C352.82,2225.38 354.192,2224.88 355.575,2224.42C357.758,2223.7 359.985,2223.12 362.223,2222.61C364.997,2221.97 367.796,2221.44 370.603,2220.98C374.273,2220.37 377.96,2219.87 381.655,2219.45C385.552,2219.01 389.458,2218.64 393.369,2218.35C398.904,2217.93 404.448,2217.63 409.995,2217.45L410.015,2217.45C413.416,2217.34 416.819,2217.26 420.221,2217.23C421.366,2217.22 422.51,2217.21 423.655,2217.2L423.966,2217.2L424.186,2217.2C425.118,2217.2 426.049,2217.2 426.98,2217.21L427.091,2217.21C428.217,2217.21 429.343,2217.22 430.469,2217.24C433.032,2217.27 435.594,2217.32 438.156,2217.39C438.766,2217.41 439.375,2217.43 439.985,2217.45L440.011,2217.45C445.849,2217.64 451.684,2217.96 457.507,2218.41C461.65,2218.74 465.788,2219.14 469.914,2219.64C473.31,2220.05 476.699,2220.52 480.071,2221.09C482.746,2221.55 485.413,2222.06 488.056,2222.67C490.342,2223.2 492.617,2223.8 494.841,2224.56C496.178,2225.01 497.505,2225.52 498.767,2226.15C499.167,2226.35 499.56,2226.57 499.94,2226.8C500.272,2227.01 500.597,2227.24 500.889,2227.5L500.891,2227.5C502.257,2228.33 502.05,2229.78 501.823,2230.91C501.565,2232.19 501.227,2233.5 501.194,2233.66L479.849,2316.61C479.772,2316.89 479.683,2317.17 479.573,2317.45C479.32,2318.09 478.974,2318.69 478.549,2319.23C478.013,2319.92 477.352,2320.51 476.608,2320.96C475.939,2321.36 475.206,2321.66 474.443,2321.83C473.806,2321.97 473.15,2322.02 472.498,2321.99C471.661,2321.95 470.833,2321.76 470.061,2321.43C468.9,2320.94 467.876,2320.14 467.116,2319.14C466.729,2318.62 466.411,2318.06 466.174,2317.46C466.083,2317.23 466.006,2317 465.937,2316.76L460.873,2298.81L456.295,2316.6C456.218,2316.89 456.128,2317.17 456.019,2317.45C455.765,2318.09 455.419,2318.69 454.995,2319.23C454.458,2319.92 453.798,2320.5 453.054,2320.96C452.386,2321.36 451.652,2321.66 450.89,2321.83C450.106,2322 449.293,2322.05 448.495,2321.95C447.666,2321.86 446.855,2321.62 446.108,2321.25C445.154,2320.77 444.308,2320.09 443.649,2319.25C443.254,2318.75 442.926,2318.19 442.677,2317.6C442.561,2317.33 442.466,2317.05 442.382,2316.77L437.318,2298.81L432.74,2316.6C432.663,2316.89 432.574,2317.17 432.464,2317.45C432.21,2318.09 431.864,2318.69 431.44,2319.23C430.904,2319.92 430.243,2320.5 429.5,2320.96C428.832,2321.36 428.098,2321.66 427.335,2321.83C426.571,2322 425.779,2322.04 425,2321.96L424.854,2321.97C424.122,2322.04 423.381,2321.99 422.665,2321.83C421.902,2321.66 421.168,2321.36 420.5,2320.96C419.757,2320.5 419.096,2319.92 418.56,2319.23C418.136,2318.69 417.79,2318.09 417.536,2317.45C417.426,2317.17 417.337,2316.89 417.26,2316.6L412.682,2298.81L407.618,2316.77C407.534,2317.05 407.439,2317.33 407.323,2317.6C407.074,2318.19 406.746,2318.75 406.351,2319.25C405.692,2320.09 404.846,2320.77 403.892,2321.25C403.145,2321.62 402.334,2321.86 401.505,2321.95C400.707,2322.05 399.894,2322 399.11,2321.83C398.348,2321.66 397.614,2321.36 396.946,2320.96C396.202,2320.5 395.542,2319.92 395.005,2319.23C394.581,2318.69 394.235,2318.09 393.981,2317.45C393.872,2317.17 393.782,2316.89 393.705,2316.6L389.127,2298.81L384.063,2316.76C383.994,2317 383.917,2317.23 383.826,2317.46C383.589,2318.06 383.271,2318.62 382.884,2319.14C382.124,2320.14 381.1,2320.94 379.939,2321.43C379.167,2321.76 378.339,2321.95 377.502,2321.99C376.85,2322.02 376.194,2321.97 375.557,2321.83C374.794,2321.66 374.061,2321.36 373.392,2320.96C372.648,2320.51 371.987,2319.92 371.451,2319.23C371.026,2318.69 370.68,2318.09 370.427,2317.45C370.317,2317.17 370.228,2316.89 370.151,2316.61L348.806,2233.66C348.773,2233.5 348.435,2232.19 348.177,2230.91C347.95,2229.78 347.697,2228.37 349.063,2227.54L349.089,2227.52ZM425,2316.5C425,2316.5 425,2316.5 425,2316.5C425.643,2315.39 426.132,2314.2 426.452,2312.95C428.119,2306.47 433.538,2285.41 433.538,2285.41L425,2255.15L416.462,2285.41C416.462,2285.41 421.881,2306.47 423.548,2312.95C423.868,2314.2 424.357,2315.39 425,2316.5C425,2316.5 425,2316.5 425,2316.5ZM464.342,2285.33L472.497,2253.64L481.035,2283.91L473.079,2314.82C473.074,2314.84 473.069,2314.86 473.06,2314.88C473.007,2314.99 472.864,2315.03 472.76,2314.97C472.707,2314.93 472.681,2314.89 472.663,2314.83L464.342,2285.33ZM385.658,2285.33L377.503,2253.64L368.965,2283.91L376.921,2314.82C376.926,2314.84 376.931,2314.86 376.94,2314.88C376.993,2314.99 377.136,2315.03 377.24,2314.97C377.293,2314.93 377.319,2314.89 377.337,2314.83L385.658,2285.33ZM440.788,2285.33L448.555,2255.15L457.093,2285.41L449.524,2314.83C449.519,2314.85 449.514,2314.86 449.505,2314.88C449.448,2315 449.293,2315.03 449.188,2314.96C449.145,2314.92 449.124,2314.88 449.109,2314.83L440.788,2285.33ZM409.212,2285.33L401.445,2255.15L392.907,2285.41L400.476,2314.83C400.481,2314.85 400.486,2314.86 400.495,2314.88C400.552,2315 400.707,2315.03 400.812,2314.96C400.855,2314.92 400.876,2314.88 400.891,2314.83L409.212,2285.33ZM446.062,2237.39C439.847,2237.69 433.624,2237.84 427.401,2237.88L437.008,2271.93L443.736,2245.78C443.768,2245.68 444.801,2241.84 444.801,2241.84C444.801,2241.84 445.442,2239.54 446.062,2237.39ZM403.938,2237.39C404.557,2239.54 405.199,2241.84 405.199,2241.84C405.199,2241.84 406.232,2245.68 406.264,2245.78L412.992,2271.93L422.599,2237.88C416.499,2237.85 410.4,2237.69 404.307,2237.41L403.938,2237.39ZM469.992,2235.44C469.706,2235.47 469.419,2235.51 469.133,2235.54C463.022,2236.26 456.888,2236.77 450.747,2237.14L460.562,2271.93L467.29,2245.78C467.323,2245.68 467.351,2245.57 467.389,2245.47C467.54,2245.05 468.78,2240.46 468.78,2240.46C468.78,2240.46 469.421,2237.7 469.992,2235.44ZM379.783,2235.41C380.439,2237.68 381.22,2240.46 381.22,2240.46C381.22,2240.46 382.46,2245.05 382.611,2245.47C382.649,2245.57 382.677,2245.68 382.71,2245.78L389.438,2271.93L399.253,2237.14C394.453,2236.85 389.658,2236.47 384.875,2235.98C383.176,2235.81 381.479,2235.62 379.783,2235.41ZM494.607,2230.6C493.726,2230.9 492.837,2231.17 491.943,2231.42C490.472,2231.83 488.987,2232.2 487.496,2232.54C485.688,2232.95 483.869,2233.31 482.045,2233.65C479.527,2234.11 476.999,2234.5 474.464,2234.86C474.488,2234.93 474.509,2235 474.531,2235.07L484.505,2270.42L492.425,2239.65L494.607,2230.6ZM355.393,2230.6L357.575,2239.65L365.495,2270.42L375.469,2235.07C375.491,2235 375.512,2234.93 375.536,2234.86C373.889,2234.63 372.244,2234.38 370.603,2234.11C368.376,2233.74 366.154,2233.33 363.945,2232.86C362.301,2232.51 360.663,2232.12 359.039,2231.69C357.814,2231.36 356.596,2231.01 355.393,2230.6ZM387.664,2243.28L387.708,2243.39C387.825,2243.7 387.917,2244 388.01,2244.31L389.681,2250.81L391.706,2243.63C390.359,2243.52 389.011,2243.41 387.664,2243.28ZM462.336,2243.28C460.989,2243.41 459.641,2243.52 458.294,2243.63L460.319,2250.81L461.99,2244.31C462.083,2244 462.175,2243.7 462.292,2243.39L462.336,2243.28ZM438.338,2244.69C437.246,2244.72 436.154,2244.75 435.062,2244.77L436.764,2250.81L438.338,2244.69ZM413.236,2250.81L414.938,2244.77C413.846,2244.75 412.754,2244.72 411.662,2244.69L413.236,2250.81ZM365.739,2249.3L368.141,2240.79C366.527,2240.51 364.917,2240.21 363.314,2239.88L365.739,2249.3ZM486.686,2239.88C485.108,2240.2 483.524,2240.5 481.935,2240.78L481.859,2240.79L484.261,2249.3L486.686,2239.88ZM346.914,2248.37C346.914,2248.37 340.063,2248.37 334.44,2248.37C330.445,2248.37 327.207,2245.14 327.207,2241.14C327.207,2216.67 327.207,2138.53 327.207,2138.53L327.207,2138.45C327.217,2137.72 327.311,2137 327.498,2136.3C327.91,2134.76 328.755,2133.34 329.917,2132.24C330.482,2131.71 331.116,2131.26 331.8,2130.89C336.413,2128.47 341.087,2126.17 345.737,2123.82C347.111,2123.13 348.49,2122.45 349.88,2121.8C352.647,2120.5 355.447,2119.26 358.278,2118.11C366.892,2114.59 375.784,2111.75 384.845,2109.63C397.578,2106.65 410.64,2105.1 423.717,2105.01C436.573,2104.91 449.436,2106.23 462.006,2108.92C471.731,2111.01 481.277,2113.92 490.511,2117.62C493.754,2118.92 496.959,2120.31 500.12,2121.8C501.51,2122.45 502.889,2123.13 504.263,2123.82C508.891,2126.16 513.519,2128.5 518.136,2130.86C518.777,2131.2 519.378,2131.61 519.918,2132.09C521.071,2133.13 521.936,2134.47 522.399,2135.95C522.607,2136.61 522.731,2137.3 522.777,2137.99C522.784,2138.12 522.789,2138.25 522.792,2138.37C523.236,2172.63 522.851,2206.89 522.799,2241.15C522.794,2245.14 519.557,2248.37 515.565,2248.37C509.941,2248.37 503.086,2248.37 503.086,2248.37L506.551,2234.91C506.631,2234.53 508.073,2228.76 508.124,2228.41C508.187,2227.98 508.203,2227.54 508.172,2227.11C508.13,2226.54 508.007,2225.99 507.813,2225.45C507.564,2224.77 507.198,2224.14 506.756,2223.56C506.11,2222.72 505.306,2222.01 504.445,2221.4C503.358,2220.63 502.172,2219.99 500.96,2219.44C499.819,2218.92 498.648,2218.47 497.462,2218.06L497.462,2153.41C497.458,2152.86 497.395,2152.32 497.263,2151.79C496.966,2150.59 496.337,2149.48 495.461,2148.61C495.185,2148.34 494.885,2148.09 494.565,2147.86C494.372,2147.73 494.171,2147.61 493.967,2147.49C493.922,2147.47 493.924,2147.47 493.855,2147.43L493.965,2147.49L494.109,2147.59C493.988,2147.51 493.87,2147.44 493.746,2147.37C493.669,2147.33 492.814,2146.9 492.738,2146.87C492.399,2146.7 492.062,2146.53 491.722,2146.36C490.535,2145.78 489.342,2145.22 488.14,2144.67C484.218,2142.88 480.218,2141.25 476.157,2139.8C465.853,2136.11 455.153,2133.54 444.298,2132.15C439.91,2131.59 435.497,2131.22 431.076,2131.04C429.236,2130.97 427.394,2130.93 425.552,2130.92C425,2130.92 424.448,2130.92 423.895,2130.92C422.606,2130.93 421.317,2130.96 420.028,2131C416.897,2131.1 413.769,2131.3 410.651,2131.6C402.922,2132.33 395.251,2133.66 387.725,2135.56C380.31,2137.44 373.039,2139.88 365.992,2142.85C363.911,2143.73 361.849,2144.66 359.809,2145.63C358.616,2146.19 357.432,2146.78 356.254,2147.37L355.891,2147.59L356.035,2147.49L356.145,2147.43C355.864,2147.57 355.595,2147.75 355.338,2147.93C354.242,2148.73 353.399,2149.85 352.94,2151.12C352.768,2151.6 352.65,2152.09 352.588,2152.59C352.559,2152.83 352.545,2153.06 352.539,2153.3C352.347,2174.89 352.523,2196.47 352.537,2218.06C351.352,2218.47 350.181,2218.92 349.04,2219.44C347.828,2219.99 346.642,2220.63 345.555,2221.4C344.693,2222.01 343.89,2222.72 343.244,2223.56C342.801,2224.14 342.436,2224.77 342.187,2225.45C341.992,2225.99 341.87,2226.54 341.828,2227.11C341.797,2227.54 341.813,2227.98 341.875,2228.41C341.926,2228.75 343.369,2234.53 343.449,2234.91L346.914,2248.37ZM490.462,2216.05L490.462,2153.55L490.227,2153.41L490.401,2153.53C489.979,2153.31 489.555,2153.1 489.131,2152.89C488.807,2152.73 488.483,2152.57 488.159,2152.41C487.187,2151.95 486.211,2151.49 485.229,2151.04C482.785,2149.92 480.31,2148.87 477.807,2147.89C470.041,2144.85 462.012,2142.48 453.838,2140.82C444.01,2138.82 433.975,2137.85 423.946,2137.92C413.03,2138 402.124,2139.32 391.504,2141.84C384.588,2143.49 377.795,2145.64 371.195,2148.28C368.531,2149.35 365.899,2150.49 363.303,2151.72C362.161,2152.25 361.028,2152.81 359.9,2153.37L359.599,2153.53L359.773,2153.41L359.538,2153.55L359.538,2216.05C359.714,2216.01 359.89,2215.96 360.066,2215.92C362.265,2215.41 364.479,2214.96 366.701,2214.55C369.824,2213.98 372.962,2213.5 376.109,2213.08C379.631,2212.62 383.163,2212.22 386.7,2211.89C390.877,2211.49 395.06,2211.18 399.248,2210.93C401.63,2210.8 404.013,2210.68 406.397,2210.58C406.395,2209.44 406.395,2208.29 406.402,2207.15C406.408,2206.83 406.426,2206.51 406.461,2206.2C406.54,2205.49 406.696,2204.8 406.927,2204.13C407.416,2202.71 408.239,2201.41 409.313,2200.36C410.274,2199.42 411.43,2198.69 412.687,2198.22C413.352,2197.98 414.044,2197.8 414.746,2197.71C415.139,2197.65 415.535,2197.63 415.932,2197.62C421.977,2197.59 428.023,2197.59 434.068,2197.62C434.465,2197.63 434.861,2197.65 435.254,2197.71C435.956,2197.8 436.648,2197.98 437.313,2198.22C438.721,2198.75 440,2199.6 441.022,2200.7C441.934,2201.69 442.636,2202.86 443.073,2204.13C443.304,2204.8 443.46,2205.49 443.539,2206.2C443.574,2206.51 443.592,2206.83 443.598,2207.15L443.599,2207.26L443.599,2210.58C444.725,2210.63 445.852,2210.68 446.978,2210.73C452.138,2210.99 457.295,2211.34 462.44,2211.81C466.265,2212.16 470.084,2212.58 473.891,2213.08C476.81,2213.47 479.722,2213.91 482.621,2214.43C484.972,2214.85 487.314,2215.31 489.639,2215.85C489.914,2215.92 490.188,2215.98 490.462,2216.05ZM436.599,2210.35C436.599,2209.28 436.642,2208.21 436.595,2207.14C436.591,2207.06 436.584,2206.99 436.574,2206.91C436.536,2206.64 436.46,2206.38 436.344,2206.14C436.041,2205.5 435.482,2204.99 434.812,2204.76C434.544,2204.67 434.264,2204.63 433.982,2204.62C428.008,2204.59 422.034,2204.62 416.06,2204.62C415.763,2204.62 415.469,2204.67 415.188,2204.76C414.434,2205.02 413.826,2205.63 413.556,2206.38C413.452,2206.67 413.403,2206.97 413.401,2207.28L413.401,2210.35L413.717,2210.34L413.85,2210.34L413.899,2210.33L413.972,2210.33C414.577,2210.32 415.181,2210.3 415.785,2210.29C416.252,2210.28 416.719,2210.28 417.186,2210.27L417.291,2210.26L417.479,2210.26C419.295,2210.23 421.112,2210.22 422.929,2210.21C423.354,2210.2 423.779,2210.2 424.205,2210.2C424.666,2210.2 425.127,2210.2 425.589,2210.2L426.037,2210.2L426.298,2210.2C426.836,2210.2 427.375,2210.21 427.913,2210.21C428.68,2210.22 429.447,2210.22 430.214,2210.23C430.873,2210.24 431.532,2210.25 432.191,2210.26C433.66,2210.28 435.13,2210.31 436.599,2210.35Z"></path></g></g></g></svg>