<svg fill="#051864" xmlns="http://www.w3.org/2000/svg" xmlns:xlink="http://www.w3.org/1999/xlink" version="1.1" x="0px" y="0px" viewBox="0 0 90 90" enable-background="new 0 0 90 90" xml:space="preserve"><g><path fill="#051864" d="M61.401,37.134c0.204-0.536,0.217-1.038,0.031-1.497c-0.383-0.947-1.438-1.266-1.537-1.293   c-0.648-0.207-1.364-0.202-2.018-0.113l-0.666-0.421c-0.006-0.037,0.008-0.074-0.005-0.11l-0.771-2.232   c-0.052-0.148-0.162-0.269-0.307-0.332l-4.687-2.068l-9.146-8.035l-6.4-5.02c0.132-0.233,0.249-0.479,0.355-0.736   c0.037,0.001,0.074,0.008,0.11,0.008c0.966,0,1.755-0.274,2.348-0.815c0.322-0.295,0.579-0.528-1.342-3.294l0.08-2.192   c0-3.152-2.989-5.718-6.663-5.718c-1.548,0-3.05,0.486-4.229,1.368c-0.603,0.449-1.092,1.045-1.496,1.821   c-0.451,0.867-0.722,1.813-0.985,2.727l-0.18,0.618c-0.049,0.163-0.056,0.349-0.043,0.538c-0.109-0.031-0.226-0.04-0.34,0.002   c-0.442,0.157-10.793,4.095-7.524,25.42l0.486,1.7c-0.518,0.81-2.064,3.579-1.503,7.015c0.458,2.797,2.19,5.304,5.151,7.454   l2.432,11.824L4.408,74.954c-0.022,0.007-0.043,0.013-0.065,0.021c-0.077-0.023-0.159-0.034-0.245-0.022l-1.552,0.215   c-0.256,0.035-0.456,0.241-0.485,0.498l-0.292,2.659l-1.154,5.727c-0.055,0.272,0.094,0.542,0.351,0.641l3.555,1.368   c0.065,0.025,0.134,0.038,0.203,0.038c0.114,0,0.227-0.034,0.323-0.102c0.154-0.108,0.245-0.284,0.243-0.471l-0.032-2.633   c0-0.002,0.002-0.004,0.003-0.005c0.004-0.007,0.004-0.016,0.009-0.021l2.083-3.806c0.014-0.02,0.038-0.03,0.048-0.053   c0.012-0.023,0.012-0.048,0.02-0.071l0.058-0.106c0.053-0.097,0.064-0.201,0.059-0.303l22.707-8.044   c0.19-0.067,0.33-0.23,0.367-0.429l1.972-10.395l17.31,22.914c-0.059,0.14-0.058,0.29-0.005,0.422   c-0.023,0.077-0.036,0.16-0.023,0.246l0.215,1.552c0.036,0.257,0.24,0.455,0.498,0.484l2.66,0.293l5.726,1.153   c0.038,0.008,0.076,0.012,0.114,0.012c0.229,0,0.44-0.141,0.525-0.363l1.369-3.554c0.066-0.176,0.043-0.374-0.064-0.527   c-0.105-0.151-0.278-0.242-0.463-0.242c-0.002,0-0.006,0-0.008,0l-2.632,0.033c-0.001,0-0.004-0.003-0.005-0.003   c-0.008-0.005-0.015-0.005-0.022-0.01l-3.774-2.065c-0.027-0.021-0.05-0.048-0.083-0.065c-0.022-0.012-0.048-0.012-0.071-0.02   l-0.106-0.058c-0.101-0.056-0.211-0.067-0.318-0.057l-18.09-34.658c0.017-0.092,0.012-0.188-0.017-0.274   c-0.135-0.413-1.273-3.793-2.874-5.271l1.305-1.989l1.024,0.228c0.575,0.48,3.085,2.32,8.038,2.539   c1.362,0.058,14.981-0.454,15.511-0.477c0.584,0.028,1.471-0.083,1.962-0.576c0,0,24.356,15.584,24.478,15.69   c0.35,0.307,0.805,0.494,1.305,0.494c1.093,0,1.983-0.891,1.983-1.983c0-0.598-0.268-1.133-0.688-1.495   C87.094,51.804,61.401,37.134,61.401,37.134z M1.817,83.808l0.107-0.534c0.526,0.379,1.05,0.57,1.564,0.57   c0.08,0,0.16-0.004,0.24-0.015c0.154-0.018,0.276-0.07,0.407-0.116l0.012,0.99L1.817,83.808z M58.739,83.61   c-0.018-0.153-0.071-0.275-0.116-0.406l0.99-0.013l-0.896,2.33l-0.541-0.107C58.613,84.807,58.809,84.201,58.739,83.61z    M31.654,13.805c0.083,0.05,1.676,0.971,3.435,1.329c-0.754,1.597-2.108,2.535-3.725,2.535c-2.367,0-4.291-2.327-4.378-5.225   C29.404,12.925,31.103,13.41,31.654,13.805z M29.723,18.504c0.019,0.086,0.051,0.169,0.11,0.241   c0.239,0.289,0.31,0.498,0.261,0.527c-1.646,0.548-4.158-1.448-5.047-3.057c-0.188-0.35-0.614-1.729-0.568-2.212l1.48-0.404   C26.374,15.928,27.831,17.805,29.723,18.504z M5.1,76.438c-0.083-0.227-0.091-0.41-0.076-0.533l18.458-11.397   c0.202-0.125,0.304-0.363,0.256-0.595l-2.555-12.431c-0.029-0.141-0.11-0.265-0.227-0.348c-2.811-1.993-4.449-4.292-4.869-6.83   c-0.293-1.772,0.067-3.37,0.502-4.528c0.936,0.309,4.587,1.438,8.407,1.586l0.962,25.76L5.1,76.438z M52.651,80.773   c0.026,0.05,0.073,0.078,0.11,0.117c-0.688,1.084-1.309,1.37-1.697,1.419c-0.019-0.056-0.04-0.111-0.079-0.162L32.866,58.159   l2.126-11.218L52.651,80.773z M34.194,45.087l-4.635,24.438L6.594,77.661c-0.087,0.031-0.157,0.084-0.216,0.147   c-0.232-0.151-0.425-0.299-0.586-0.441l20.978-9.37c0.211-0.093,0.343-0.307,0.334-0.537l-0.976-26.096   c1.881-0.03,3.723-0.357,5.252-1.164C32.6,40.997,33.78,43.874,34.194,45.087z M40.388,34.119l-1.335,4.541   c-2.465-0.695-3.614-1.736-3.628-1.75c-0.03-0.028-0.072-0.036-0.107-0.057c-0.048-0.063-0.108-0.116-0.183-0.155   c-0.082-0.042-8.224-4.338-13.583-12.652c-0.169-0.264-0.519-0.34-0.782-0.17c-0.263,0.17-0.338,0.52-0.169,0.781   c4.104,6.369,9.643,10.368,12.367,12.081l-1.379,2.103c-0.068-0.006-0.14-0.003-0.209,0.018c-5.913,1.702-13.644-1.637-13.721-1.67   c-0.031-0.014-0.063-0.014-0.093-0.021l-0.476-1.65c-3.101-20.258,6.703-24.078,6.802-24.114c0.095-0.034,0.167-0.097,0.229-0.168   c0.013,0.023,0.021,0.049,0.035,0.072c0.278,0.45,0.705,0.746,1.202,0.833c0.168,0.029,0.322,0.059,0.485,0.088   c0,0.006-0.004,0.011-0.004,0.017c0,0.072,0.007,0.143,0.009,0.214c-0.376,0.104-1.685,0.461-1.717,0.473   c-0.285,0.042-0.516,0.213-0.648,0.481c-0.483,0.975,0.563,3.329,0.575,3.351c0.833,1.508,3.186,3.737,5.423,3.737   c0.327,0,0.652-0.048,0.969-0.153c0.516-0.17,0.709-0.499,0.78-0.746c0.079-0.274,0.034-0.552-0.064-0.813   c0.067,0.002,0.133,0.012,0.2,0.012c1.533,0,2.898-0.686,3.887-1.856l3.669,2.877l-0.882,5.675l-1.2-0.615   c-0.178-0.093-0.393-0.081-0.562,0.026c-0.169,0.107-0.269,0.297-0.261,0.498l0.066,1.719l-3.377-3.721   c-0.21-0.232-0.568-0.249-0.799-0.039c-0.231,0.21-0.249,0.567-0.039,0.799l4.358,4.802c0.02,0.043,0.019,0.094,0.05,0.131   l4.145,4.965C40.41,34.081,40.395,34.097,40.388,34.119z M47.96,35.469l-6.379-1.781l-4.099-4.911   c-0.022-0.088-0.058-0.173-0.123-0.245l-0.096-0.105l-0.081-2.098l12.186,6.253l2.751,3.044L47.96,35.469z M53.358,35.309   l-2.95-3.265l0.974-1.77l4.065,1.795l0.359,1.042c-0.229,0.02-0.432,0.098-0.612,0.233c-0.57,0.436-0.577,1.274-0.531,1.736   l-1.249,0.302C53.397,35.356,53.379,35.332,53.358,35.309z M60.403,36.372c-0.32-0.142-0.681-0.17-1.048-0.044   c-0.339,0.117-0.946,0.457-1.076,0.994c-0.071,0.302,0.021,0.612,0.252,0.853c0.189,0.193,0.412,0.353,0.646,0.499   c-0.234,0.069-0.552,0.109-0.851,0.099c-0.049,0.002-1.825,0.068-4.159,0.151c0.014-0.08,0.013-0.164-0.013-0.247l-0.646-2.156   l2.613-0.64c0.563-0.253,2.276-0.829,3.444-0.455c0.179,0.052,0.673,0.269,0.819,0.639C60.421,36.153,60.409,36.265,60.403,36.372z   "></path><path fill="#051864" d="M86.063,40.209c-1.838,0-3.334,1.497-3.334,3.336c0,0.914,0.364,1.768,1.029,2.404   c0.627,0.601,1.443,0.93,2.305,0.93c1.544,0,2.876-1.053,3.236-2.558l0,0c0.066-0.276,0.098-0.53,0.098-0.776   C89.397,41.706,87.901,40.209,86.063,40.209z M86.063,45.748c-0.453,0-0.888-0.14-1.257-0.397c0.002-0.004,0.002-0.011,0.005-0.015   c0.076-0.182,0.178-0.346,0.295-0.497c0.019-0.025,0.036-0.052,0.057-0.076c0.12-0.141,0.257-0.266,0.407-0.373   c0.026-0.019,0.056-0.037,0.083-0.056c0.158-0.101,0.326-0.185,0.505-0.242c0.024-0.008,0.052-0.013,0.076-0.021   c0.193-0.055,0.394-0.09,0.602-0.09c0.202,0,0.399,0.038,0.591,0.092c0.041,0.012,0.08,0.021,0.121,0.036   c0.183,0.063,0.358,0.146,0.521,0.258c0.008,0.006,0.016,0.014,0.024,0.021C87.757,45.202,86.967,45.748,86.063,45.748z    M88.159,43.134c-0.14-0.061-0.287-0.105-0.435-0.146c-0.07-0.021-0.137-0.048-0.208-0.063c-0.223-0.047-0.45-0.074-0.681-0.074   c-0.259,0-0.511,0.04-0.755,0.097c-0.061,0.014-0.117,0.029-0.177,0.046c-0.237,0.068-0.468,0.154-0.681,0.273   c-0.008,0.003-0.012,0.008-0.018,0.012c-0.209,0.116-0.397,0.261-0.575,0.42c-0.044,0.039-0.087,0.079-0.129,0.122   c-0.174,0.171-0.334,0.357-0.468,0.564c-0.002,0.003-0.004,0.005-0.005,0.007c-0.11-0.265-0.169-0.552-0.169-0.847   c0-1.216,0.988-2.205,2.203-2.205c1.084,0,1.987,0.787,2.17,1.819C88.21,43.147,88.184,43.146,88.159,43.134z"></path></g></svg>