<svg fill="#051864" xmlns="http://www.w3.org/2000/svg" xmlns:xlink="http://www.w3.org/1999/xlink" version="1.1" x="0px" y="0px" viewBox="0 0 52 52" enable-background="new 0 0 52 52" xml:space="preserve"><g><path d="M42,48.0929565h-1.0452881V7.6950073c0-0.5600586-0.4500122-1-1-1h-3.5999756V2.9049683c0-0.5499268-0.4500122-1-1-1   h-7.0499878c-0.5599976,0-1,0.4500732-1,1v3.7900391h-2.6000366V2.9049683c0-0.5499268-0.4500122-1-1-1h-7.0499878   c-0.5599976,0-1,0.4500732-1,1v3.7900391h-3.5999756c-0.5599976,0-1,0.4399414-1,1v40.3979492H10c-0.5522461,0-1,0.4472656-1,1   s0.4477539,1,1,1h2.0444336c0.0036621,0,0.0066528,0.0020752,0.0103149,0.0020752h4.5999756   c0.0036011,0,0.0065918-0.0020752,0.0101929-0.0020752h7.02948c0.0036621,0,0.0066528,0.0020752,0.0103149,0.0020752h4.6000366   c0.0036011,0,0.0065918-0.0020752,0.0101929-0.0020752h7.02948c0.0036621,0,0.0066528,0.0020752,0.0103149,0.0020752h4.5999756   c0.0036011,0,0.0065918-0.0020752,0.0101929-0.0020752H42c0.5522461,0,1-0.4472656,1-1S42.5522461,48.0929565,42,48.0929565z    M17.6547241,8.6950073h5.0499878v12.864502c0.9996948-0.4846191,2.1165161-0.7644043,3.3001709-0.7644043   c1.1834717,0,2.3001709,0.2797852,3.2998657,0.7644043V8.6950073h5.0499878v39.3979492h-5.0499878V35.230896   c-0.9996948,0.4846191-2.116394,0.7644043-3.2998657,0.7644043c-1.1836548,0-2.3004761-0.2797852-3.3001709-0.7644043v12.8620605   h-5.0499878V8.6950073z"></path><path d="M26.0046997,33.9950562c3.0800171,0,5.6000366-2.5100098,5.6000366-5.6000977   c0-3.0899658-2.5200195-5.5999756-5.6000366-5.5999756c-3.0899658,0-5.5999756,2.5100098-5.5999756,5.5999756   C20.4047241,31.4850464,22.9147339,33.9950562,26.0046997,33.9950562z"></path></g></svg>