<svg fill="#051864" xmlns="http://www.w3.org/2000/svg" xmlns:xlink="http://www.w3.org/1999/xlink" version="1.1" x="0px" y="0px" viewBox="0 0 100 100" style="enable-background:new 0 0 100 100;" xml:space="preserve"><path d="M77.353,89.018c-0.402-0.36-1.055-0.401-2.012-0.138l-3.284,0.614L48.969,59.852c0.451-0.894,0.632-1.74,0.429-3.364  c-0.04-0.32-0.081-0.669-0.122-1.03c-0.18-1.562-0.384-3.333-0.743-4.319c-0.395-1.085-0.812-4.292-0.915-5.635  c-0.031-0.41-0.083-0.926-0.141-1.476c0.003-0.01,0.014-0.014,0.017-0.024c0.007-0.025,0.735-2.518,1.043-3.442  c0.236-0.711,0.128-1.677,0.024-2.611c-0.053-0.482-0.104-0.937-0.104-1.32c0-1.13,0.103-3.833,0.104-3.86  c0.002-0.043-0.011-0.083-0.02-0.124c0.005,0,0.013,0.002,0.019,0.002c0.139,0,0.261-0.027,0.366-0.082  c0.235-0.124,0.371-0.362,0.371-0.654c0-0.405,0.226-1.011,0.426-1.546c0.111-0.298,0.217-0.583,0.289-0.834  c0.033-0.116,0.082-0.3,0.143-0.53c0.267-1.006,0.977-3.677,1.434-4.21c0.704-0.822,0.671-1.708-0.101-2.633  c-0.469-0.562-0.783-1.646-0.71-1.989c0.237,0.027,0.804,0.337,1.132,0.665c0.55,0.55,1.607,0.938,2.249,0.618  c0.321-0.16,0.728-0.555,1.198-1.012c0.269-0.26,0.543-0.526,0.786-0.729c0.192-0.162,0.479-0.303,0.979,0.031  c0.242,0.163,0.545,0.182,0.826,0.051c0.47-0.219,0.801-0.803,0.886-1.562c0.044-0.393,0.178-0.69,0.307-0.949  c0.357,0.321,0.718,0.601,1.041,0.795c1.065,0.639,2.905,1.061,3.482,0.292c0.482-0.642-0.1-1.169-0.523-1.554  c-0.194-0.175-0.424-0.382-0.653-0.644c-0.646-0.737-0.925-1.876-0.925-2.295c0-0.129,0.141-0.483,0.253-0.769  c0.214-0.542,0.481-1.217,0.481-1.852c0-1.182-1.104-2.886-1.801-3.682c-0.532-0.61-1.941-2.071-3.503-2.461  c-1.077-0.271-2.236-0.002-3.256,0.232c-0.29,0.067-0.569,0.132-0.832,0.18c-1.307,0.237-1.91,1.466-2.35,2.364L50.14,8.729  c-0.288,0.58-0.563,1.149-0.952,2.007c-0.822,1.808-1.188,2.105-1.331,2.121c-0.358,0-0.595,0-0.785,0.315  c0,0.001-0.067,0.086-0.399,0.271c-0.405,0.225-0.793,0.487-1.223,0.78c-0.578,0.392-1.231,0.836-2.125,1.313  c-1.683,0.897-4.266,2.968-5.966,4.469c-1.858,1.64-5.319,5.746-5.956,6.702c-0.159,0.239-0.452,0.724-0.817,1.33  c-0.967,1.604-2.766,4.59-3.483,5.163c-0.75,0.6-1.399,2.203-1.971,3.617c-0.268,0.661-0.571,1.41-0.737,1.611  c-0.053,0.07-1.297,1.734-1.734,2.717c-0.5,1.125-0.443,3.177-0.244,4.274c0.204,1.122,0.941,4.523,1.385,5.743  c0.409,1.125,1.675,5.768,1.977,6.976c0.303,1.212,1.663,6.958,1.988,8.476c0.181,0.846,0.485,3.66,0.73,5.923  c0.178,1.647,0.332,3.07,0.419,3.597c0.038,0.228,0.11,0.629,0.202,1.141c0.37,2.062,1.236,6.891,1.156,7.858  c-0.054,0.649-0.054,1.537-0.054,2.396c0,0.842,0,1.712-0.05,2.32c-0.025,0.3-0.075,0.646-0.126,1.008  c-0.198,1.399-0.385,2.722,0.303,3.294C31.336,94.977,35.548,95,35.59,95c1.471,0,8.216-0.203,9.582-0.316  c0.997-0.083,2.74-0.453,2.956-1.317c0.052-0.204,0.036-0.411-0.012-0.598c0.324-0.056,0.677-0.177,0.93-0.43  c0.174-0.174,0.262-0.406,0.249-0.654c-0.018-0.31-0.174-0.831-1.338-1.762c-0.419-0.335-1.074-0.533-1.833-0.761  c-0.363-0.109-0.75-0.227-1.138-0.367c-0.935-0.34-2.348-0.854-2.918-1.613c-0.426-0.567-0.442-0.937-0.489-2.033  c-0.011-0.247-0.023-0.526-0.042-0.844c-0.037-0.623-0.112-1.703-0.193-2.89c-0.147-2.123-0.33-4.766-0.33-5.363l-0.006-0.596  c-0.017-1.099-0.044-2.937,0.209-4.461l0.158-0.921c0.28-1.606,0.569-3.268,0.477-4.646c-0.062-0.931-0.525-2.635-0.972-4.282  c-0.335-1.233-0.682-2.511-0.816-3.315c-0.314-1.889-1.05-6.192-1.259-7.346c-0.193-1.065-0.101-1.497,0.191-2.375  c0.354-1.06-0.139-2.518-0.668-3.444l-0.146-0.249C38.1,44.282,38,44.114,37.996,44.065c0.002-0.015,0.023-0.106,0.278-0.403  c0.616-0.719,1.882-1.985,2.49-2.593c0.105-0.105,0.205-0.212,0.302-0.319c0.001,0.055,0.002,0.11,0.003,0.165  c0.027,1.449,0.053,2.818,0.109,3.317c0.085,0.765,0.771,2.281,1.375,3.618c0.133,0.294,0.253,0.563,0.364,0.814  c-0.038,0.07-0.065,0.146-0.065,0.231c0,0.252-0.196,2.164-0.681,3.133c-0.618,1.234-0.345,1.846,0.095,2.835  c0.327,0.734,0.895,1.029,1.31,1.15c-0.048,0.22-0.104,0.414-0.155,0.582c-0.178,0.593-0.362,1.204,0.311,1.877  c0.362,0.362,0.752,0.687,1.097,0.973c0.265,0.221,0.506,0.419,0.686,0.599c0.109,0.11,0.207,0.264,0.309,0.418  c0.284,0.426,0.662,0.995,1.298,0.995c0.06,0,0.123-0.005,0.188-0.016c0.625-0.104,0.85-0.229,1.131-0.655l24.359,31.259  c0.035,0.032,0.798,0.685,1.973,0.685c0.168,0,0.347-0.014,0.531-0.044l0.298-0.049c1.04-0.167,1.862-0.298,2.001-1.538  c0.012-0.109,0.03-0.224,0.049-0.341C77.741,90.184,77.854,89.467,77.353,89.018z M47.577,38.059  c0.088,0.789,0.188,1.683,0.019,2.187c-0.102,0.307-0.246,0.774-0.395,1.264c-0.044-0.403-0.083-0.768-0.108-1.046l-0.028-0.305  c-0.26-2.905-0.422-4.3-0.572-4.873c0.108-0.032,0.208-0.08,0.299-0.148c0.406-0.305,0.476-0.969,0.583-2.324  c0.015-0.18,0.03-0.366,0.046-0.554c0.104,0.058,0.202,0.106,0.297,0.151c-0.083,0.085-0.143,0.196-0.147,0.32  c-0.004,0.111-0.105,2.749-0.105,3.898C47.466,37.067,47.522,37.571,47.577,38.059z M57.849,18.121  c-0.048,0.435-0.191,0.653-0.271,0.735c-0.722-0.438-1.471-0.407-2.069,0.092c-0.259,0.216-0.553,0.5-0.84,0.779  c-0.343,0.332-0.768,0.744-0.952,0.836c-0.146,0.074-0.759-0.086-1.104-0.432c-0.321-0.321-1.158-0.929-1.845-0.948  c-0.161-0.927-0.511-2.719-0.985-3.824c-0.338-0.79-0.837-1.358-1.268-1.738c0.096-0.069,0.19-0.151,0.281-0.246  c0.21,0.183,0.587,0.379,1.16,0.188c0.943-0.315,1.363-1.258,1.888-1.678c0.33-0.265,0.91-0.528,1.294-0.688  c0.413,0.292,0.904,0.611,1.385,0.914c0.113,0.167,0.209,0.34,0.256,0.507c0.21,0.734,0.001,1.573,0.63,1.573  c0.36,0,0.889-0.24,1.278-0.446c0.146,0.25,0.312,0.567,0.463,0.945c0.238,0.596,0.708,1.257,1.25,1.854  c-0.019,0.035-0.037,0.071-0.054,0.104C58.177,16.97,57.924,17.458,57.849,18.121z M51.447,8.327  c0.366-0.748,0.822-1.678,1.636-1.826c0.277-0.05,0.572-0.118,0.878-0.188c0.911-0.211,1.946-0.449,2.793-0.237  c1.325,0.331,2.629,1.731,2.997,2.152c0.735,0.841,1.555,2.292,1.555,3.029c0,0.446-0.219,1-0.411,1.488  c-0.174,0.437-0.323,0.814-0.323,1.133c0,0.669,0.363,2.026,1.172,2.949c0.257,0.294,0.515,0.528,0.731,0.726  c0.086,0.076,0.181,0.163,0.256,0.238c-0.375,0.038-1.249-0.09-2.037-0.562c-0.411-0.247-0.87-0.638-1.295-1.073  c-0.044-0.082-0.108-0.149-0.188-0.197c-0.516-0.559-0.954-1.166-1.142-1.634c-0.443-1.108-0.999-1.783-1.023-1.811  c-0.037-0.044-0.081-0.082-0.132-0.112c-0.888-0.516-3.317-1.978-3.952-2.601l-1.673-1.15L51.447,8.327z M45.09,93.695  c-1.325,0.109-8.112,0.312-9.5,0.312c-1.988,0-4.228-0.301-4.611-0.618c-0.175-0.146-0.141-0.847-0.069-1.507h0.8  c0,0,0.209-2.097,0.209-2.411c0-0.315,0.734,2.621,1.048,2.621s2.936-1.154,4.404-1.573c0.688-0.197,1.396-0.739,2.032-1.303  c0.375,0.31,0.818,0.607,1.349,0.819c1.509,0.604,2.361,0.83,3.772,1.206l0.268,0.071c1.382,0.368,2.146,1.291,2.153,1.301l0,0  c0.133,0.172,0.242,0.423,0.238,0.464C47.064,93.247,46.26,93.598,45.09,93.695z M44.647,89.728c0.406,0.147,0.812,0.27,1.191,0.384  c0.632,0.191,1.23,0.371,1.499,0.586c0.696,0.558,0.893,0.868,0.947,0.987c-0.166,0.103-0.472,0.138-0.722,0.134  c-0.328-0.342-1.175-1.107-2.513-1.464l-0.268-0.07c-1.376-0.366-2.206-0.588-3.66-1.168c-0.374-0.149-0.698-0.354-0.979-0.575  c0.405-0.381,0.756-0.71,1.005-0.852c0.02-0.011,0.026-0.036,0.043-0.05c0.032,0.047,0.048,0.089,0.084,0.137  C41.963,88.695,43.319,89.245,44.647,89.728z M40.062,40.367c-0.469,0.469-1.321,1.321-1.985,2.033  c-0.39-0.48-1.142-1.348-1.962-2.416c-1.049-1.363-3.041-1.782-4.194-2.412c-0.883-0.481-3.853-1.515-5.196-1.973  c0.331-0.724,0.681-1.371,0.997-1.624c0.791-0.632,2.208-2.928,3.714-5.426c0.354-0.588,0.638-1.059,0.792-1.291  c0.601-0.901,4.018-4.947,5.788-6.508c1.792-1.582,4.272-3.536,5.776-4.338c0.941-0.502,1.618-0.962,2.215-1.368  c0.404-0.275,0.767-0.521,1.147-0.733c0.148-0.082,0.259-0.154,0.356-0.222c0.365,0.256,0.983,0.787,1.358,1.662  c0.53,1.237,0.915,3.548,0.997,4.066c-0.282,0.872,0.352,2.366,0.86,2.976c0.468,0.561,0.496,0.902,0.11,1.352  c-0.502,0.585-1.019,2.263-1.64,4.602c-0.059,0.223-0.106,0.4-0.139,0.513c-0.065,0.229-0.163,0.488-0.264,0.76  c-0.198,0.53-0.401,1.075-0.467,1.577c-0.208-0.084-0.5-0.246-0.774-0.421c0.018-0.106,0.035-0.214,0.056-0.313  c0.19-0.888,0.549-1.666,0.896-2.417c0.204-0.44,0.399-0.865,0.554-1.291l0.101-0.275c0.445-1.203,0.999-2.699,0.098-3.601  c-0.194-0.194-0.508-0.194-0.702,0c-0.193,0.193-0.193,0.508,0,0.701c0.452,0.452,0.02,1.618-0.327,2.555l-0.103,0.28  c-0.146,0.4-0.332,0.8-0.522,1.214c-0.352,0.764-0.751,1.629-0.964,2.625c-0.138,0.64-0.198,1.406-0.252,2.082  c-0.049,0.62-0.116,1.469-0.171,1.598c-0.232,0.083-1.17-0.271-1.731-0.482l-0.547-0.204c-1.156-0.42-2.863-1.236-3.414-1.695  c-0.164-0.184-0.052-1.2,0.008-1.746c0.076-0.69,0.154-1.403,0.055-1.949c-0.209-1.152-0.733-4.189-0.733-4.189l-0.978,0.168  c0,0,0.525,3.044,0.735,4.198c0.073,0.404,0.003,1.044-0.065,1.664c-0.126,1.146-0.234,2.134,0.34,2.613  c0.296,0.247,0.797,0.54,1.356,0.827c-0.105,0.849-0.364,3.099-0.275,4.079c0.029,0.317,0.05,0.916,0.067,1.621  C40.849,39.483,40.48,39.949,40.062,40.367z M43.145,54.398c-0.389-0.875-0.494-1.11-0.086-1.926  c0.261-0.521,0.444-1.237,0.569-1.897c0.208,0.689,0.369,1.394,0.489,2.171c0.133,0.862-0.066,1.536-0.276,2.25  c-0.006,0.02-0.01,0.04-0.016,0.059C43.616,54.982,43.329,54.812,43.145,54.398z M47.146,60.464  c-0.099-0.009-0.355-0.337-0.497-0.55c-0.132-0.2-0.269-0.405-0.434-0.57c-0.198-0.197-0.462-0.418-0.753-0.66  c-0.329-0.273-0.695-0.577-1.029-0.911c-0.244-0.244-0.232-0.326-0.062-0.891c0.065-0.217,0.139-0.465,0.198-0.76  c0.057-0.285,0.14-0.563,0.224-0.845c0.221-0.751,0.472-1.602,0.305-2.683c-0.219-1.42-0.552-2.619-1.081-3.89  c-0.144-0.346-0.343-0.787-0.559-1.264c-0.517-1.144-1.225-2.71-1.293-3.318c-0.051-0.455-0.078-1.864-0.103-3.227  c-0.009-0.483-0.018-0.955-0.028-1.394c0.033-0.103,0.028-0.209-0.007-0.309c-0.018-0.722-0.039-1.325-0.07-1.666  c-0.07-0.775,0.117-2.563,0.232-3.532c0.513,0.232,1.015,0.439,1.412,0.583l0.536,0.2c0.504,0.191,0.957,0.356,1.361,0.457  c-0.008,0.08-0.005,0.162,0.025,0.241c0.112,0.285,0.299,1.89,0.557,4.771l0.028,0.306c0.044,0.484,0.125,1.208,0.211,1.986  c0.12,1.073,0.251,2.251,0.312,3.041c0.093,1.204,0.504,4.613,0.972,5.898c0.319,0.876,0.524,2.659,0.69,4.093  c0.042,0.365,0.082,0.717,0.123,1.041c0.193,1.547,0.012,2.192-0.465,3.053C47.54,60.397,47.54,60.397,47.146,60.464z   M76.671,90.604c-0.021,0.132-0.042,0.262-0.056,0.385c-0.05,0.456-0.08,0.495-1.172,0.669l-0.303,0.05  c-0.95,0.155-1.609-0.343-1.626-0.343c-0.001,0-0.001,0.001,0,0.002l-0.772-0.992l2.82-0.529c0.934-0.256,1.12-0.096,1.129-0.089  C76.79,89.846,76.71,90.358,76.671,90.604z"></path></svg>