<svg fill="#051864" xmlns="http://www.w3.org/2000/svg" xmlns:xlink="http://www.w3.org/1999/xlink" version="1.1" x="0px" y="0px" viewBox="0 0 90 90" enable-background="new 0 0 90 90" xml:space="preserve"><g><path fill="#051864" d="M88.223,61.828c-0.064-0.355-0.405-0.593-0.764-0.529c-0.355,0.064-0.592,0.406-0.527,0.762   c0.005,0.023,0.087,0.512,0.179,1.294l-2.115-0.785c-0.025-0.01-0.052-0.007-0.079-0.013l0.089-0.693   c0.037-0.282-0.113-0.556-0.37-0.677c-2.931-1.379-11.21-0.829-11.572-0.804c-2.128,0.181-3.2,0.602-3.479,1.366   c-0.006,0.018-0.011,0.032-0.016,0.048l-8.111,0.146l-0.451-1.465c4.466-12.064,4.118-20.222,4.023-21.544l5.881-3.899   c0.094,0.103,0.213,0.184,0.359,0.21l2.117,0.378c0.096,0.104,0.223,0.177,0.369,0.201l1.982,0.331   c0.311,0.049,0.624-0.13,0.728-0.435l0.982-2.866l1.634-0.71c0.178-0.078,0.313-0.23,0.368-0.418   c1.545-5.283-2.852-7.977-3.747-8.463l-1.731-2.279c-0.002-0.004-0.01-0.006-0.012-0.011c-0.005-0.006-0.008-0.016-0.014-0.021   c-0.066-0.078-0.15-0.132-0.24-0.169c-0.006-0.003-0.01-0.01-0.015-0.013l-4.979-1.954l-11.567-6.031   c-7.471-3.871-12.21-2.871-13.895-2.269l0.338-3.236c0.049-0.456-0.112-0.962-0.252-1.408l-0.092-0.303   c-0.382-1.406-1.314-2.524-1.982-3.243c-2.123-2.286-5.641-2.854-8.558-1.382c-0.871,0.439-1.583,0.908-2.12,1.396   c-1.285,1.167-2.083,2.699-2.246,4.314c-0.072,0.719-0.092,1.389-0.056,2.049c0.044,0.814,0.128,1.873,0.606,2.719   c-0.004,0.063-0.016,0.127,0,0.191l0.993,4.329c-0.056,0.038-0.111,0.075-0.154,0.131l-6.352,8.065   c-0.12,0.167-2.884,4.164,1.766,9.813l9.232,9.65l3.525,5.453c0.001,0.002,0.003,0.002,0.004,0.006   c-0.013,0.178-0.036,0.354-0.018,0.536c0.093,0.909,0.578,1.693,1.424,2.351c-3.333,2.321-17.723,12.343-17.814,12.407   c-4.957,3.454-10.238,0.291-14.897-2.498c-0.518-0.313-1.028-0.618-1.528-0.909c-0.147-0.086-0.304-0.185-0.463-0.285   c-0.826-0.522-1.762-1.115-2.551-0.687c-0.733,0.4-0.742,1.396-0.745,1.725c-0.012,1.52,1.081,2.868,1.904,3.749   c1.294,1.388,3.143,2.432,4.923,3.384c1.823,0.977,4.242,2.098,6.778,2.109c0.012,0,0.024,0,0.037,0   c2.292,0,4.218-1.031,6.182-2.201l20.973-14.162c0.224,0.3,0.486,0.543,0.77,0.75l-0.24,4.964c0,3.448,2.554,6.126,2.632,6.204   l12.071,14.37c0.064,0.147,0.059,0.646-0.003,1.17c-1.787,0.355-2.906,1.061-3.33,2.097c-0.586,1.434,0.446,2.846,0.49,2.905   c0.126,0.17,0.322,0.265,0.527,0.265c0.047,0,0.093-0.005,0.141-0.015l2.367-0.524l-1.089,1.171   c-0.03,0.033-0.043,0.072-0.066,0.109c-0.69-0.118-1.098-0.212-1.117-0.216c-0.351-0.086-0.706,0.133-0.792,0.484   c-0.084,0.353,0.135,0.705,0.486,0.79c0.243,0.058,3.295,0.767,7.181,0.767c3.74,0,8.254-0.655,11.778-3.187   c0.294-0.209,0.361-0.62,0.15-0.913c-0.211-0.295-0.62-0.362-0.915-0.149c-0.271,0.192-0.558,0.354-0.84,0.523l-2-2.248   c0.102-0.062,0.191-0.139,0.247-0.245c1.261-2.361-3.242-8.11-5.331-10.575l13.064-1.952c0.508,0.305,1.024,3.217,0.95,6.739   c0.078,0.951,0.525,1.429,0.887,1.661c0.907,0.584,2.087,0.187,2.219,0.14c0.231-0.082,0.396-0.288,0.428-0.533l0.299-2.31   L84.8,78.26l-0.738,1.077c-0.197,0.286-0.135,0.677,0.139,0.89c0.12,0.092,0.261,0.137,0.403,0.137   c0.183,0,0.364-0.078,0.493-0.225C90.365,74.104,88.312,62.327,88.223,61.828z M73.349,22.333l1.396,1.839   c0.063,0.084,0.149,0.151,0.243,0.197c0.185,0.087,4.411,2.148,3.281,6.696l-1.61,0.701c-0.17,0.073-0.3,0.215-0.358,0.389   l-0.896,2.614l-0.966-0.161c-0.186-1.036-0.746-3.306-2.185-4.041c-0.492-0.251-1.298-0.429-2.344,0.153   c-0.043,0.023-0.082,0.051-0.118,0.083l-0.217,0.193l-2.499-3.246L73.349,22.333z M59.211,27.429l3.035,2.168   c0.18,0.129,0.414,0.157,0.622,0.076l3.092-1.223l2.583,3.357l-4.981,3.434l-4.716-7.473L59.211,27.429z M60.681,33.135   l1.797,2.848l-6.845,4.653L60.681,33.135z M29.587,8.576c-0.029-0.538-0.01-1.141,0.054-1.791c0.131-1.292,0.779-2.526,1.823-3.476   c0.442-0.401,1.075-0.814,1.829-1.195c2.398-1.21,5.278-0.757,7.005,1.103c0.912,0.981,1.445,1.839,1.679,2.696   c0.03,0.105,0.067,0.226,0.107,0.354c0.086,0.274,0.218,0.69,0.199,0.876l-0.202,1.931C42,8.977,41.899,8.896,41.774,8.858   c-0.213-0.063-0.451-0.012-0.621,0.133c-0.024,0.02-2.617,2.118-11.107,1.833C29.693,10.255,29.629,9.365,29.587,8.576z    M34.241,17.416c0.271-0.01,0.558-0.028,0.848-0.048l0.675,3.404l-1.146-0.907c0.023-0.09,0.032-0.185,0.015-0.282L34.241,17.416z    M34.46,14.203l0.37,1.861c-0.287,0.018-0.562,0.029-0.827,0.037l-0.335-1.858C33.926,14.232,34.185,14.222,34.46,14.203z    M33.432,12.935l-0.147-0.81c0.257-0.011,0.513-0.021,0.757-0.036l0.16,0.809C33.936,12.913,33.679,12.926,33.432,12.935z    M35.519,12.792l-0.162-0.813c0.432-0.045,0.845-0.093,1.227-0.15l0.147,0.801C36.323,12.693,35.916,12.75,35.519,12.792z    M36.969,13.923l0.342,1.854c-0.396,0.068-0.785,0.123-1.167,0.167l-0.369-1.856C36.167,14.044,36.567,13.986,36.969,13.923z    M37.549,17.073l0.681,3.695l-1.094,0.177l-0.734-3.7C36.777,17.2,37.161,17.142,37.549,17.073z M38.019,12.384L37.875,11.6   c0.407-0.086,0.781-0.176,1.119-0.271l0.132,0.768C38.765,12.207,38.393,12.3,38.019,12.384z M39.349,13.385l0.314,1.815   c-0.354,0.115-0.71,0.219-1.068,0.309l-0.339-1.836C38.626,13.591,38.989,13.491,39.349,13.385z M39.89,16.505l0.473,2.729   c0,0.002,0.002,0.005,0.002,0.007l-0.903,0.979l-0.628-3.415C39.187,16.719,39.539,16.615,39.89,16.505z M40.252,10.914   c0.368-0.145,0.693-0.284,0.938-0.411l0.173,0.619c-0.309,0.188-0.64,0.355-0.987,0.506L40.252,10.914z M41.691,12.429l0.12,1.846   c-0.291,0.164-0.591,0.313-0.897,0.45l-0.309-1.778C40.982,12.792,41.344,12.618,41.691,12.429z M41.902,15.696l0.114,1.755   l-0.531,0.576l-0.343-1.979C41.4,15.941,41.652,15.821,41.902,15.696z M30.355,12.151c0.569,0.016,1.083,0.01,1.603,0.006   l0.144,0.799c-0.866-0.004-1.447-0.039-1.573-0.048L30.355,12.151z M30.834,14.238c0.339,0.018,0.835,0.036,1.478,0.036   c0.008,0,0.02-0.001,0.028-0.001l0.332,1.837c-0.66-0.014-1.151-0.046-1.425-0.069L30.834,14.238z M31.554,17.381   c0.347,0.023,0.811,0.044,1.356,0.05l0.228,1.266l-1.566-1.24L31.554,17.381z M37.63,24.226l-5.127-3.395l0.36-0.681l2.726,2.157   c0.117,0.092,0.261,0.142,0.407,0.142c0.034,0,0.069-0.003,0.104-0.009l3.415-0.551c0.145-0.022,0.278-0.095,0.378-0.202   l0.075-0.082l0.086,1.998L37.63,24.226z M42.218,50.084c-0.953,0-1.586,0.509-1.955,0.947c-0.653-0.46-1.014-0.984-1.074-1.567   c-0.141-1.356,1.313-2.918,1.915-3.431c0.516-0.495,1.202-0.735,2.095-0.735c1.455,0,3.042,0.655,3.976,1.112l-1.33,1.127   c-0.183,0.153-0.267,0.395-0.22,0.629l0.174,0.869l-2.638,1.212C42.839,50.139,42.522,50.084,42.218,50.084z M44.044,53.058   c0.19-0.157,0.275-0.412,0.219-0.653c-0.124-0.531-0.089-1.129,0.104-1.233c0.084,0.009,0.173-0.01,0.254-0.039l5.3-1.944   l0.736,3.311c-1.319,0.925-4.224,2.594-6.162,2.158c-0.552-0.121-0.992-0.405-1.336-0.862L44.044,53.058z M43.998,60.842   c-0.016-0.173-0.048-0.34-0.048-0.52l0.213-4.401c0.017,0.006,0.032,0.013,0.049,0.017c3.158,0.708,7.398-2.506,7.577-2.643   c0.203-0.155,0.298-0.414,0.242-0.663l-0.984-4.43l12.703-8.421c0.055,2.513-0.177,10.073-4.051,20.446   c-0.051,0.137-0.056,0.284-0.014,0.424l0.362,1.172C57.472,60.931,49.991,58.735,43.998,60.842z M71.122,86.781   c-4.468,2.108-9.983,1.886-13.196,1.487l1.628-1.753c0.064-0.069,0.108-0.146,0.137-0.229l1.731-0.382l-0.499,1.715   c-0.058,0.199-0.018,0.414,0.105,0.577c0.124,0.165,0.317,0.263,0.524,0.263c3.37,0,7.388-1.3,7.556-1.354   c0.206-0.067,0.366-0.231,0.427-0.438c0.061-0.209,0.015-0.432-0.121-0.6l-1.332-1.634l0.795-0.176L71.122,86.781z M62.435,87.118   l0.445-1.535l3.769-0.834l1.127,1.383C66.589,86.46,64.441,86.987,62.435,87.118z M69.48,82.781l-14.13,3.122   c-0.153-0.325-0.313-0.823-0.128-1.275c0.271-0.661,1.236-1.139,2.797-1.381c0.275-0.044,0.493-0.256,0.543-0.531   c0.148-0.818,0.171-1.452,0.102-1.919l6.191-6.113C67.486,77.918,69.681,81.433,69.48,82.781z M84.438,66.258   c1.478,1.597,1.152,4.143,0.478,6.602c-0.519-0.201-1.044-0.424-1.26-0.547L84.438,66.258z M81.531,78.511   c-0.232,0.031-0.512,0.029-0.697-0.092c-0.163-0.106-0.258-0.33-0.284-0.596c0.065-2.913-0.126-7.829-2.163-8.022   c-0.053-0.003-0.107-0.002-0.161,0.006l-0.807,0.12l-1.932-7.161c-0.07-0.261-0.29-0.448-0.556-0.479l-3.256-0.384   c0.349-0.079,0.823-0.155,1.487-0.212c2.159-0.148,7.978-0.319,10.476,0.51L81.531,78.511z M85.521,77.154l-1.904-1.586   c-0.106-0.089-0.234-0.127-0.365-0.138l0.226-1.748c0.702,0.316,1.639,0.651,1.653,0.657c0.068,0.024,0.144,0.036,0.219,0.036   c0.102,0,0.203-0.023,0.297-0.07c0.16-0.081,0.28-0.225,0.331-0.396c0.61-2.044,2.026-6.804-1.339-9.22l0.107-0.814l2.502,0.93   C87.494,67.968,87.511,73.234,85.521,77.154z"></path><path fill="#051864" d="M8.568,53.876c2.281,0,4.13-0.888,4.13-1.982c0-0.215,0-0.999,0-1.213c0-1.095-1.85-1.983-4.13-1.983   c-2.281,0-4.131,0.889-4.131,1.983c0,0.214,0,0.998,0,1.213C4.437,52.988,6.287,53.876,8.568,53.876z"></path></g></svg>