<svg fill="#051864" xmlns:dc="http://purl.org/dc/elements/1.1/" xmlns:cc="http://creativecommons.org/ns#" xmlns:rdf="http://www.w3.org/1999/02/22-rdf-syntax-ns#" xmlns:svg="http://www.w3.org/2000/svg" xmlns="http://www.w3.org/2000/svg" xmlns:sodipodi="http://sodipodi.sourceforge.net/DTD/sodipodi-0.dtd" xmlns:inkscape="http://www.inkscape.org/namespaces/inkscape" viewBox="0 0 12.7 12.7" version="1.1" x="0px" y="0px"><g transform="translate(0,-284.29999)"><path style="" d="m 6.1800495,284.83249 a 5.8208062,5.8207963 0 0 0 -5.650883,5.81836 5.8208335,5.8208236 0 0 0 11.6416665,0 5.8208062,5.8207963 0 0 0 -5.9907835,-5.81836 z m -1.160393,0.41196 -0.08135,0.58286 1.411422,0.90116 1.411422,-0.90116 -0.04731,-0.57439 a 5.5676029,5.5675934 0 0 1 2.4558705,1.34744 l -0.8426415,0.40648 0.287398,1.84375 1.8303495,1.01737 0.39008,-0.17214 a 5.5676029,5.5675934 0 0 1 0.0012,1.9035 l -0.394864,-0.17774 -1.8082005,1.00958 -0.293823,1.87 0.8504335,0.38133 h -2.91e-4 a 5.5676029,5.5675934 0 0 1 -2.4758325,1.3663 l 0.04731,-0.57453 -1.411286,-0.90116 -1.411421,0.90116 0.08122,0.58287 a 5.5676029,5.5675934 0 0 1 -2.509605,-1.37464 l 0.850436,-0.38133 -0.293688,-1.87 -1.808337,-1.00958 -0.394865,0.17774 a 5.5676029,5.5675934 0 0 1 0.0014,-1.9035 l 0.389942,0.17214 1.830487,-1.01737 0.287262,-1.84375 -0.842642,-0.40648 a 5.5676029,5.5675934 0 0 1 2.489916,-1.35591 z" fill="#051864" stroke="none"></path><path style="" d="m 6.3500015,288.66243 1.721249,0.99378 v 1.98756 l -1.721249,0.99377 -1.721252,-0.99377 v -1.98756 z" fill="#051864" stroke="none"></path></g></svg>