<svg fill="#051864" xmlns:dc="http://purl.org/dc/elements/1.1/" xmlns:cc="http://creativecommons.org/ns#" xmlns:rdf="http://www.w3.org/1999/02/22-rdf-syntax-ns#" xmlns:svg="http://www.w3.org/2000/svg" xmlns="http://www.w3.org/2000/svg" xmlns:sodipodi="http://sodipodi.sourceforge.net/DTD/sodipodi-0.dtd" xmlns:inkscape="http://www.inkscape.org/namespaces/inkscape" version="1.1" x="0px" y="0px" viewBox="0 0 32 32"><g transform="translate(0,-1020.3622)"><g transform="translate(98.999563,-66.0312)"><g><g transform="translate(-98.999562,63.031208)"><g transform="translate(75.000003,-142.00001)"><g transform="matrix(0.99988686,0,0,0.99988686,120.98135,-100.85238)"><path style="color:#000000;text-indent:0;text-decoration-line:none;text-transform:none;direction:ltr;block-progression:tb;baseline-shift:baseline;enable-background:accumulate;" d="m -180.45631,1266.9943 -0.51521,0.03 -0.39399,0.2425 0,0.4546 0.36368,0.2728 0.12123,0 0.45459,-0.03 0.0303,0 0.42429,0 0.39398,-0.1818 0.0606,-0.4546 -0.33337,-0.3031 -0.0909,-0.03 -0.48491,0 z m 2.48513,0.1516 -0.42429,0.1515 -0.0909,0.4546 0.30306,0.3334 0.0909,0.03 0.51521,0.061 0.39398,0.091 0.4546,-0.1212 0.12123,-0.4546 -0.27276,-0.3334 -0.0909,-0.061 -0.4546,-0.091 -0.0303,0 z m -4.97026,0.1515 -0.48491,0.091 -0.0606,0 -0.4546,0.1213 -0.30306,0.3333 0.0606,0.4243 0.42429,0.2122 0.0909,-0.03 0.39399,-0.1213 0.0606,0 0.4546,-0.091 0.33337,-0.2728 0,-0.4545 -0.39399,-0.2122 z m 7.87968,0.5152 -0.4546,0.091 -0.18184,0.4243 0.24245,0.3637 0.0909,0.061 0.42429,0.1212 0.0606,0.03 0.39398,0.1516 0.4546,-0.03 0.21214,-0.394 -0.18184,-0.394 -0.0909,-0.061 -0.45459,-0.1818 -0.0606,-0.03 z m -10.63757,0.3031 -0.12123,0.03 -0.60613,0.2424 -0.0303,0.03 -0.30307,0.1213 -0.24245,0.394 0.15153,0.4242 0.4546,0.091 0.0909,-0.03 0.24245,-0.1213 0.0606,-0.03 0.54552,-0.2121 0.30307,-0.3637 -0.12123,-0.4243 z m 12.91055,0.9092 -0.24245,0.394 0.15153,0.4242 0.0909,0.061 0.36368,0.1818 0.0303,0.03 0.39398,0.2728 0.4546,0.03 0.30306,-0.3334 -0.12123,-0.4243 -0.0909,-0.091 -0.4243,-0.2728 -0.0303,-0.03 -0.42429,-0.2121 z m -15.57752,0.4546 -0.12122,0.061 -0.63644,0.4243 -0.0606,0.03 -0.12123,0.1212 -0.18184,0.394 0.24245,0.394 0.4546,0.03 0.0909,-0.061 0.0909,-0.091 0.0303,-0.03 0.63643,-0.3939 0.21215,-0.4243 -0.21215,-0.394 z m 18.06265,1.2122 -0.33337,0.3031 0.0606,0.4546 0.0909,0.061 0.30307,0.2728 0.0303,0.03 0.33337,0.3333 0.42429,0.1213 0.36368,-0.2728 -0.0303,-0.4546 -0.0606,-0.091 -0.36367,-0.3637 -0.0303,-0.03 -0.36368,-0.2728 z m -19.97196,0.6062 -0.45459,0.03 -0.0909,0.091 -0.60613,0.5758 -0.0303,0.03 -0.0606,0.091 -0.12123,0.4546 0.33337,0.3334 0.4546,-0.091 0.0606,-0.061 0.0606,-0.061 0.0303,-0.03 0.57583,-0.5758 0.12122,-0.4243 z m 22.06311,1.4547 -0.39399,0.2424 0,0.4546 0.0606,0.091 0.27275,0.3637 0.0303,0.03 0.24245,0.3637 0.39399,0.2121 0.39398,-0.2121 0.0606,-0.4243 -0.0606,-0.1212 -0.24245,-0.3637 -0.0303,-0.061 -0.30306,-0.394 z m -24.03303,0.7273 -0.42429,0.1212 -0.0909,0.091 -0.45459,0.697 -0.0303,0.03 -0.0606,0.1212 0,0.4546 0.36368,0.2728 0.42429,-0.1818 0.0606,-0.091 0.0303,-0.061 0.0303,-0.03 0.4546,-0.6667 0.0303,-0.4546 z m 25.66958,1.7275 -0.4243,0.1818 -0.0909,0.4243 0.0303,0.1212 0.27276,0.5153 0.0303,0.03 0.0909,0.2727 0.36367,0.3031 0.42429,-0.1212 0.15154,-0.4243 -0.0303,-0.1213 -0.12123,-0.303 -0.0303,-0.03 -0.27276,-0.5759 z m -27.1849,0.8183 -0.39398,0.1818 -0.0606,0.091 -0.30306,0.7577 -0.0303,0.03 -0.0303,0.1515 0.0606,0.4546 0.42429,0.1819 0.39398,-0.2122 0.0303,-0.1212 0.0303,-0.091 0.0303,-0.061 0.30307,-0.6971 -0.0606,-0.4546 z m 9.395,0.4243 c -0.2686,0 -0.4849,0.2163 -0.4849,0.4849 l 0,10.6375 0.96977,0.3334 0,-6.0916 0.18184,-0.061 4.84903,-1.9093 1.12134,-0.4546 -1.12134,-0.4546 -4.84903,-1.9396 -0.18184,-0.061 c 0,-0.2686 -0.2163,-0.4849 -0.48491,-0.4849 z m 18.97185,1.485 -0.4546,0.061 -0.21214,0.4243 0.0303,0.091 0.24245,0.9395 0.30307,0.3334 0.45459,-0.061 0.21215,-0.394 -0.0303,-0.1213 -0.24245,-0.9395 z m -29.33666,0.8486 -0.36367,0.2727 -0.0303,0.091 -0.18184,0.788 0,0.03 -0.0303,0.1818 0.18183,0.4243 0.42429,0.1213 0.33338,-0.3031 0.0303,-0.1212 0.0303,-0.1819 0.15153,-0.7273 -0.12122,-0.4243 z m 29.5185,2.0305 -0.30307,0.3637 0,0.091 0.0303,0.9698 0.24245,0.394 0.4546,0.03 0.27275,-0.3334 0,-0.1212 -0.0303,-0.9698 -0.21215,-0.394 z m -29.97309,0.8789 -0.30307,0.3333 0,0.1213 -0.0303,0.7879 0,0.03 0.0303,0.1819 0.24245,0.394 0.4546,0 0.24245,-0.3637 0.0303,-0.091 -0.0303,-0.1516 0,-0.03 0.0303,-0.7576 -0.21215,-0.394 z m 29.97309,2.0002 -0.33338,0.3334 0,0.091 -0.0303,0.2424 0,0.061 -0.12123,0.6061 0.12123,0.4243 0.4546,0.1515 0.33337,-0.3031 0.0303,-0.091 0.15154,-0.6667 0,-0.061 0.0303,-0.2728 -0.18184,-0.4243 z m -29.39727,0.9092 -0.4546,0.03 -0.21214,0.394 0,0.091 0.15153,0.8183 0,0.061 0.0303,0.1212 0.33337,0.3334 0.42429,-0.061 0.21214,-0.4243 -0.0303,-0.091 -0.0303,-0.091 0,-0.061 -0.15153,-0.7576 z m 28.88206,1.9093 -0.36368,0.2425 -0.0606,0.091 -0.18184,0.6667 -0.0303,0.061 -0.0606,0.1516 0.0303,0.4546 0.39399,0.2121 0.39398,-0.1818 0.0606,-0.091 0.0909,-0.2121 0.0303,-0.061 0.21215,-0.6971 -0.0909,-0.4546 z m -21.94188,0.6364 c 0.73434,0.5801 1.70883,1.0727 2.8185,1.4547 l 0,4.9097 c 0,0.2686 0.2163,0.4849 0.4849,0.4849 0.26861,0 0.48491,-0.2163 0.48491,-0.4849 l 0,-4.5763 c 1.46926,0.3925 3.13943,0.5757 4.84903,0.5758 3.02605,-8e-4 5.92097,-0.6937 7.84937,-1.8183 3.82924,1.9862 6.19644,5.2973 6.21283,8.5767 5e-5,0.01 -1e-5,0.021 0,0.03 -0.006,0.3255 -0.0731,0.6456 -0.12123,0.9698 l -29.82155,0 c -0.0474,-0.3186 -0.11463,-0.6498 -0.12123,-0.9698 2e-5,-0.01 -6e-5,-0.021 0,-0.03 0.023,-3.596 2.89127,-7.2279 7.36447,-9.1223 z m -6.27344,0.2122 -0.42429,0.1212 -0.15153,0.4243 0.0303,0.1212 0.36367,0.8789 0.33337,0.3031 0.4546,-0.1213 0.15153,-0.4242 -0.0303,-0.091 -0.36368,-0.9092 z m 12.48626,4.152 c -0.489,0 -0.94524,0.125 -1.30317,0.3636 -0.35793,0.2387 -0.63644,0.6268 -0.63644,1.0911 0,0.4643 0.27851,0.8524 0.63644,1.091 0.35793,0.2387 0.81417,0.3637 1.30317,0.3637 0.489,0 0.94526,-0.125 1.30318,-0.3637 0.35794,-0.2386 0.63644,-0.6267 0.63644,-1.091 0,-0.4643 -0.2785,-0.8524 -0.63644,-1.0911 -0.35792,-0.2386 -0.81418,-0.3636 -1.30318,-0.3636 z m 0,0.9698 c 0.31432,0 0.58915,0.07 0.75767,0.1818 0.16851,0.1124 0.21214,0.2318 0.21214,0.3031 0,0.071 -0.0437,0.1604 -0.21214,0.2727 -0.16852,0.1124 -0.44335,0.2122 -0.75767,0.2122 -0.31431,0 -0.58914,-0.1 -0.75766,-0.2122 -0.16851,-0.1123 -0.21214,-0.2015 -0.21214,-0.2727 0,-0.072 0.0437,-0.1907 0.21214,-0.3031 0.16852,-0.1124 0.44335,-0.1818 0.75766,-0.1818 z" display="inline" overflow="visible" visibility="visible" fill="#051864" fill-opacity="1" stroke="none" marker="none"></path></g></g></g></g></g></g></svg>